<?xml version="1.0" encoding="UTF-8" standalone="no"?>
<!DOCTYPE svg PUBLIC "-//W3C//DTD SVG 1.1//EN"
 "http://www.w3.org/Graphics/SVG/1.1/DTD/svg11.dtd">
<!-- Generated by graphviz version 7.1.0 (20230121.1956)
 -->
<!-- Title: G Pages: 1 -->
<svg width="1326pt" height="342pt"
 viewBox="0.00 0.00 1325.69 342.00" xmlns="http://www.w3.org/2000/svg" xmlns:xlink="http://www.w3.org/1999/xlink">
<g id="graph0" class="graph" transform="scale(1 1) rotate(0) translate(4 338)">
<title>G</title>
<polygon fill="white" stroke="none" points="-4,4 -4,-338 1321.69,-338 1321.69,4 -4,4"/>
<!-- 60 -->
<g id="node1" class="node">
<title>60</title>
<polygon fill="none" stroke="black" points="1102.69,-88.5 1102.69,-157.5 1317.69,-157.5 1317.69,-88.5 1102.69,-88.5"/>
<text text-anchor="middle" x="1210.19" y="-142.3" font-family="Times,serif" font-size="14.00">o</text>
<polyline fill="none" stroke="black" points="1102.69,-134.5 1317.69,-134.5"/>
<text text-anchor="middle" x="1210.19" y="-119.3" font-family="Times,serif" font-size="14.00">data: 0.7071067811865477</text>
<polyline fill="none" stroke="black" points="1102.69,-111.5 1317.69,-111.5"/>
<text text-anchor="middle" x="1210.19" y="-96.3" font-family="Times,serif" font-size="14.00">grad: 0.0</text>
</g>
<!-- 260 -->
<g id="node2" class="node">
<title>260</title>
<ellipse fill="none" stroke="black" cx="1034.85" cy="-123" rx="31.7" ry="18"/>
<text text-anchor="middle" x="1034.85" y="-119.3" font-family="Times,serif" font-size="14.00">tanh</text>
</g>
<!-- 260&#45;&gt;60 -->
<g id="edge1" class="edge">
<title>260&#45;&gt;60</title>
<path fill="none" stroke="black" d="M1066.84,-123C1074.23,-123 1082.57,-123 1091.4,-123"/>
<polygon fill="black" stroke="black" points="1091.3,-126.5 1101.3,-123 1091.3,-119.5 1091.3,-126.5"/>
</g>
<!-- 80 -->
<g id="node3" class="node">
<title>80</title>
<polygon fill="none" stroke="black" points="752,-88.5 752,-157.5 967,-157.5 967,-88.5 752,-88.5"/>
<text text-anchor="middle" x="859.5" y="-142.3" font-family="Times,serif" font-size="14.00">n</text>
<polyline fill="none" stroke="black" points="752,-134.5 967,-134.5"/>
<text text-anchor="middle" x="859.5" y="-119.3" font-family="Times,serif" font-size="14.00">data: 0.8813735870195432</text>
<polyline fill="none" stroke="black" points="752,-111.5 967,-111.5"/>
<text text-anchor="middle" x="859.5" y="-96.3" font-family="Times,serif" font-size="14.00">grad: 0.0</text>
</g>
<!-- 80&#45;&gt;260 -->
<g id="edge6" class="edge">
<title>80&#45;&gt;260</title>
<path fill="none" stroke="black" d="M966.83,-123C975.38,-123 983.67,-123 991.32,-123"/>
<polygon fill="black" stroke="black" points="991.28,-126.5 1001.28,-123 991.28,-119.5 991.28,-126.5"/>
</g>
<!-- 280 -->
<g id="node4" class="node">
<title>280</title>
<ellipse fill="none" stroke="black" cx="689" cy="-123" rx="27" ry="18"/>
<text text-anchor="middle" x="689" y="-119.3" font-family="Times,serif" font-size="14.00">+</text>
</g>
<!-- 280&#45;&gt;80 -->
<g id="edge2" class="edge">
<title>280&#45;&gt;80</title>
<path fill="none" stroke="black" d="M716.33,-123C723.49,-123 731.73,-123 740.56,-123"/>
<polygon fill="black" stroke="black" points="740.51,-126.5 750.51,-123 740.51,-119.5 740.51,-126.5"/>
</g>
<!-- 100 -->
<g id="node5" class="node">
<title>100</title>
<polygon fill="none" stroke="black" points="459,-132.5 459,-201.5 587,-201.5 587,-132.5 459,-132.5"/>
<text text-anchor="middle" x="523" y="-186.3" font-family="Times,serif" font-size="14.00">x1*w1 + x2*w2</text>
<polyline fill="none" stroke="black" points="459,-178.5 587,-178.5"/>
<text text-anchor="middle" x="523" y="-163.3" font-family="Times,serif" font-size="14.00">data: &#45;6.0</text>
<polyline fill="none" stroke="black" points="459,-155.5 587,-155.5"/>
<text text-anchor="middle" x="523" y="-140.3" font-family="Times,serif" font-size="14.00">grad: 0.0</text>
</g>
<!-- 100&#45;&gt;280 -->
<g id="edge7" class="edge">
<title>100&#45;&gt;280</title>
<path fill="none" stroke="black" d="M586.94,-150.11C609.18,-144.15 633.41,-137.65 652.57,-132.51"/>
<polygon fill="black" stroke="black" points="653.28,-135.94 662.03,-129.97 651.46,-129.18 653.28,-135.94"/>
</g>
<!-- 300 -->
<g id="node6" class="node">
<title>300</title>
<ellipse fill="none" stroke="black" cx="357" cy="-167" rx="27" ry="18"/>
<text text-anchor="middle" x="357" y="-163.3" font-family="Times,serif" font-size="14.00">+</text>
</g>
<!-- 300&#45;&gt;100 -->
<g id="edge3" class="edge">
<title>300&#45;&gt;100</title>
<path fill="none" stroke="black" d="M384.35,-167C401.62,-167 425.13,-167 447.84,-167"/>
<polygon fill="black" stroke="black" points="447.73,-170.5 457.73,-167 447.73,-163.5 447.73,-170.5"/>
</g>
<!-- 120 -->
<g id="node7" class="node">
<title>120</title>
<polygon fill="none" stroke="black" points="210,-176.5 210,-245.5 294,-245.5 294,-176.5 210,-176.5"/>
<text text-anchor="middle" x="252" y="-230.3" font-family="Times,serif" font-size="14.00">x1*w1</text>
<polyline fill="none" stroke="black" points="210,-222.5 294,-222.5"/>
<text text-anchor="middle" x="252" y="-207.3" font-family="Times,serif" font-size="14.00">data: &#45;6.0</text>
<polyline fill="none" stroke="black" points="210,-199.5 294,-199.5"/>
<text text-anchor="middle" x="252" y="-184.3" font-family="Times,serif" font-size="14.00">grad: 0.0</text>
</g>
<!-- 120&#45;&gt;300 -->
<g id="edge8" class="edge">
<title>120&#45;&gt;300</title>
<path fill="none" stroke="black" d="M293.71,-193.61C303.49,-189.43 313.81,-185.02 323.18,-181.02"/>
<polygon fill="black" stroke="black" points="324.44,-184.29 332.26,-177.14 321.69,-177.85 324.44,-184.29"/>
</g>
<!-- 320 -->
<g id="node8" class="node">
<title>320</title>
<ellipse fill="none" stroke="black" cx="147" cy="-211" rx="27" ry="18"/>
<text text-anchor="middle" x="147" y="-207.3" font-family="Times,serif" font-size="14.00">*</text>
</g>
<!-- 320&#45;&gt;120 -->
<g id="edge4" class="edge">
<title>320&#45;&gt;120</title>
<path fill="none" stroke="black" d="M174.26,-211C181.88,-211 190.49,-211 199.11,-211"/>
<polygon fill="black" stroke="black" points="198.86,-214.5 208.86,-211 198.86,-207.5 198.86,-214.5"/>
</g>
<!-- 140 -->
<g id="node9" class="node">
<title>140</title>
<polygon fill="none" stroke="black" points="1.5,-264.5 1.5,-333.5 82.5,-333.5 82.5,-264.5 1.5,-264.5"/>
<text text-anchor="middle" x="42" y="-318.3" font-family="Times,serif" font-size="14.00">x1</text>
<polyline fill="none" stroke="black" points="1.5,-310.5 82.5,-310.5"/>
<text text-anchor="middle" x="42" y="-295.3" font-family="Times,serif" font-size="14.00">data: 2.0</text>
<polyline fill="none" stroke="black" points="1.5,-287.5 82.5,-287.5"/>
<text text-anchor="middle" x="42" y="-272.3" font-family="Times,serif" font-size="14.00">grad: 0.0</text>
</g>
<!-- 140&#45;&gt;320 -->
<g id="edge9" class="edge">
<title>140&#45;&gt;320</title>
<path fill="none" stroke="black" d="M82.23,-265.48C95.15,-254.44 109.17,-242.47 120.76,-232.57"/>
<polygon fill="black" stroke="black" points="122.99,-235.27 128.31,-226.11 118.44,-229.94 122.99,-235.27"/>
</g>
<!-- 160 -->
<g id="node10" class="node">
<title>160</title>
<polygon fill="none" stroke="black" points="0,-176.5 0,-245.5 84,-245.5 84,-176.5 0,-176.5"/>
<text text-anchor="middle" x="42" y="-230.3" font-family="Times,serif" font-size="14.00">w1</text>
<polyline fill="none" stroke="black" points="0,-222.5 84,-222.5"/>
<text text-anchor="middle" x="42" y="-207.3" font-family="Times,serif" font-size="14.00">data: &#45;3.0</text>
<polyline fill="none" stroke="black" points="0,-199.5 84,-199.5"/>
<text text-anchor="middle" x="42" y="-184.3" font-family="Times,serif" font-size="14.00">grad: 0.0</text>
</g>
<!-- 160&#45;&gt;320 -->
<g id="edge10" class="edge">
<title>160&#45;&gt;320</title>
<path fill="none" stroke="black" d="M83.71,-211C91.87,-211 100.41,-211 108.46,-211"/>
<polygon fill="black" stroke="black" points="108.28,-214.5 118.28,-211 108.28,-207.5 108.28,-214.5"/>
</g>
<!-- 180 -->
<g id="node11" class="node">
<title>180</title>
<polygon fill="none" stroke="black" points="211.5,-88.5 211.5,-157.5 292.5,-157.5 292.5,-88.5 211.5,-88.5"/>
<text text-anchor="middle" x="252" y="-142.3" font-family="Times,serif" font-size="14.00">x2*w2</text>
<polyline fill="none" stroke="black" points="211.5,-134.5 292.5,-134.5"/>
<text text-anchor="middle" x="252" y="-119.3" font-family="Times,serif" font-size="14.00">data: 0.0</text>
<polyline fill="none" stroke="black" points="211.5,-111.5 292.5,-111.5"/>
<text text-anchor="middle" x="252" y="-96.3" font-family="Times,serif" font-size="14.00">grad: 0.0</text>
</g>
<!-- 180&#45;&gt;300 -->
<g id="edge11" class="edge">
<title>180&#45;&gt;300</title>
<path fill="none" stroke="black" d="M292.23,-139.76C302.39,-144.1 313.23,-148.73 323.04,-152.92"/>
<polygon fill="black" stroke="black" points="321.61,-156.12 332.18,-156.83 324.36,-149.68 321.61,-156.12"/>
</g>
<!-- 340 -->
<g id="node12" class="node">
<title>340</title>
<ellipse fill="none" stroke="black" cx="147" cy="-123" rx="27" ry="18"/>
<text text-anchor="middle" x="147" y="-119.3" font-family="Times,serif" font-size="14.00">*</text>
</g>
<!-- 340&#45;&gt;180 -->
<g id="edge5" class="edge">
<title>340&#45;&gt;180</title>
<path fill="none" stroke="black" d="M174.26,-123C182.22,-123 191.25,-123 200.25,-123"/>
<polygon fill="black" stroke="black" points="200.04,-126.5 210.04,-123 200.04,-119.5 200.04,-126.5"/>
</g>
<!-- 200 -->
<g id="node13" class="node">
<title>200</title>
<polygon fill="none" stroke="black" points="1.5,-88.5 1.5,-157.5 82.5,-157.5 82.5,-88.5 1.5,-88.5"/>
<text text-anchor="middle" x="42" y="-142.3" font-family="Times,serif" font-size="14.00">x2</text>
<polyline fill="none" stroke="black" points="1.5,-134.5 82.5,-134.5"/>
<text text-anchor="middle" x="42" y="-119.3" font-family="Times,serif" font-size="14.00">data: 0.0</text>
<polyline fill="none" stroke="black" points="1.5,-111.5 82.5,-111.5"/>
<text text-anchor="middle" x="42" y="-96.3" font-family="Times,serif" font-size="14.00">grad: 0.0</text>
</g>
<!-- 200&#45;&gt;340 -->
<g id="edge12" class="edge">
<title>200&#45;&gt;340</title>
<path fill="none" stroke="black" d="M82.23,-123C90.73,-123 99.71,-123 108.16,-123"/>
<polygon fill="black" stroke="black" points="108.13,-126.5 118.13,-123 108.13,-119.5 108.13,-126.5"/>
</g>
<!-- 220 -->
<g id="node14" class="node">
<title>220</title>
<polygon fill="none" stroke="black" points="1.5,-0.5 1.5,-69.5 82.5,-69.5 82.5,-0.5 1.5,-0.5"/>
<text text-anchor="middle" x="42" y="-54.3" font-family="Times,serif" font-size="14.00">w2</text>
<polyline fill="none" stroke="black" points="1.5,-46.5 82.5,-46.5"/>
<text text-anchor="middle" x="42" y="-31.3" font-family="Times,serif" font-size="14.00">data: 1.0</text>
<polyline fill="none" stroke="black" points="1.5,-23.5 82.5,-23.5"/>
<text text-anchor="middle" x="42" y="-8.3" font-family="Times,serif" font-size="14.00">grad: 0.0</text>
</g>
<!-- 220&#45;&gt;340 -->
<g id="edge13" class="edge">
<title>220&#45;&gt;340</title>
<path fill="none" stroke="black" d="M82.23,-68.52C95.15,-79.56 109.17,-91.53 120.76,-101.43"/>
<polygon fill="black" stroke="black" points="118.44,-104.06 128.31,-107.89 122.99,-98.73 118.44,-104.06"/>
</g>
<!-- 240 -->
<g id="node15" class="node">
<title>240</title>
<polygon fill="none" stroke="black" points="420,-44.5 420,-113.5 626,-113.5 626,-44.5 420,-44.5"/>
<text text-anchor="middle" x="523" y="-98.3" font-family="Times,serif" font-size="14.00">b</text>
<polyline fill="none" stroke="black" points="420,-90.5 626,-90.5"/>
<text text-anchor="middle" x="523" y="-75.3" font-family="Times,serif" font-size="14.00">data: 6.881373587019543</text>
<polyline fill="none" stroke="black" points="420,-67.5 626,-67.5"/>
<text text-anchor="middle" x="523" y="-52.3" font-family="Times,serif" font-size="14.00">grad: 0.0</text>
</g>
<!-- 240&#45;&gt;280 -->
<g id="edge14" class="edge">
<title>240&#45;&gt;280</title>
<path fill="none" stroke="black" d="M626,-106.37C635.47,-108.91 644.57,-111.35 652.74,-113.54"/>
<polygon fill="black" stroke="black" points="651.58,-116.85 662.14,-116.06 653.39,-110.09 651.58,-116.85"/>
</g>
</g>
</svg>
