<?xml version="1.0" encoding="UTF-8" standalone="no"?>
<!DOCTYPE svg PUBLIC "-//W3C//DTD SVG 1.1//EN"
 "http://www.w3.org/Graphics/SVG/1.1/DTD/svg11.dtd">
<!-- Generated by graphviz version 7.1.0 (20230121.1956)
 -->
<!-- Title: G Pages: 1 -->
<svg width="727pt" height="254pt"
 viewBox="0.00 0.00 727.00 254.00" xmlns="http://www.w3.org/2000/svg" xmlns:xlink="http://www.w3.org/1999/xlink">
<g id="graph0" class="graph" transform="scale(1 1) rotate(0) translate(4 250)">
<title>G</title>
<polygon fill="white" stroke="none" points="-4,4 -4,-250 723,-250 723,4 -4,4"/>
<!-- 60 -->
<g id="node1" class="node">
<title>60</title>
<polygon fill="none" stroke="black" points="635,-44.5 635,-113.5 719,-113.5 719,-44.5 635,-44.5"/>
<text text-anchor="middle" x="677" y="-98.3" font-family="Times,serif" font-size="14.00">L</text>
<polyline fill="none" stroke="black" points="635,-90.5 719,-90.5"/>
<text text-anchor="middle" x="677" y="-75.3" font-family="Times,serif" font-size="14.00">data: &#45;8.0</text>
<polyline fill="none" stroke="black" points="635,-67.5 719,-67.5"/>
<text text-anchor="middle" x="677" y="-52.3" font-family="Times,serif" font-size="14.00">grad: 0.0</text>
</g>
<!-- 200 -->
<g id="node2" class="node">
<title>200</title>
<ellipse fill="none" stroke="black" cx="572" cy="-79" rx="27" ry="18"/>
<text text-anchor="middle" x="572" y="-75.3" font-family="Times,serif" font-size="14.00">*</text>
</g>
<!-- 200&#45;&gt;60 -->
<g id="edge1" class="edge">
<title>200&#45;&gt;60</title>
<path fill="none" stroke="black" d="M599.26,-79C606.88,-79 615.49,-79 624.11,-79"/>
<polygon fill="black" stroke="black" points="623.86,-82.5 633.86,-79 623.86,-75.5 623.86,-82.5"/>
</g>
<!-- 80 -->
<g id="node3" class="node">
<title>80</title>
<polygon fill="none" stroke="black" points="426.5,-88.5 426.5,-157.5 507.5,-157.5 507.5,-88.5 426.5,-88.5"/>
<text text-anchor="middle" x="467" y="-142.3" font-family="Times,serif" font-size="14.00">d</text>
<polyline fill="none" stroke="black" points="426.5,-134.5 507.5,-134.5"/>
<text text-anchor="middle" x="467" y="-119.3" font-family="Times,serif" font-size="14.00">data: 4.0</text>
<polyline fill="none" stroke="black" points="426.5,-111.5 507.5,-111.5"/>
<text text-anchor="middle" x="467" y="-96.3" font-family="Times,serif" font-size="14.00">grad: 0.0</text>
</g>
<!-- 80&#45;&gt;200 -->
<g id="edge4" class="edge">
<title>80&#45;&gt;200</title>
<path fill="none" stroke="black" d="M507.23,-106.24C517.39,-101.9 528.23,-97.27 538.04,-93.08"/>
<polygon fill="black" stroke="black" points="539.36,-96.32 547.18,-89.17 536.61,-89.88 539.36,-96.32"/>
</g>
<!-- 220 -->
<g id="node4" class="node">
<title>220</title>
<ellipse fill="none" stroke="black" cx="362" cy="-123" rx="27" ry="18"/>
<text text-anchor="middle" x="362" y="-119.3" font-family="Times,serif" font-size="14.00">+</text>
</g>
<!-- 220&#45;&gt;80 -->
<g id="edge2" class="edge">
<title>220&#45;&gt;80</title>
<path fill="none" stroke="black" d="M389.26,-123C397.22,-123 406.25,-123 415.25,-123"/>
<polygon fill="black" stroke="black" points="415.04,-126.5 425.04,-123 415.04,-119.5 415.04,-126.5"/>
</g>
<!-- 100 -->
<g id="node5" class="node">
<title>100</title>
<polygon fill="none" stroke="black" points="212.5,-132.5 212.5,-201.5 296.5,-201.5 296.5,-132.5 212.5,-132.5"/>
<text text-anchor="middle" x="254.5" y="-186.3" font-family="Times,serif" font-size="14.00">e</text>
<polyline fill="none" stroke="black" points="212.5,-178.5 296.5,-178.5"/>
<text text-anchor="middle" x="254.5" y="-163.3" font-family="Times,serif" font-size="14.00">data: &#45;6.0</text>
<polyline fill="none" stroke="black" points="212.5,-155.5 296.5,-155.5"/>
<text text-anchor="middle" x="254.5" y="-140.3" font-family="Times,serif" font-size="14.00">grad: 0.0</text>
</g>
<!-- 100&#45;&gt;220 -->
<g id="edge5" class="edge">
<title>100&#45;&gt;220</title>
<path fill="none" stroke="black" d="M296.29,-149.99C306.85,-145.58 318.08,-140.9 328.18,-136.69"/>
<polygon fill="black" stroke="black" points="329.32,-140.01 337.2,-132.93 326.62,-133.54 329.32,-140.01"/>
</g>
<!-- 240 -->
<g id="node6" class="node">
<title>240</title>
<ellipse fill="none" stroke="black" cx="147" cy="-167" rx="27" ry="18"/>
<text text-anchor="middle" x="147" y="-163.3" font-family="Times,serif" font-size="14.00">*</text>
</g>
<!-- 240&#45;&gt;100 -->
<g id="edge3" class="edge">
<title>240&#45;&gt;100</title>
<path fill="none" stroke="black" d="M174.35,-167C182.59,-167 192,-167 201.37,-167"/>
<polygon fill="black" stroke="black" points="201.21,-170.5 211.21,-167 201.21,-163.5 201.21,-170.5"/>
</g>
<!-- 120 -->
<g id="node7" class="node">
<title>120</title>
<polygon fill="none" stroke="black" points="1.5,-176.5 1.5,-245.5 82.5,-245.5 82.5,-176.5 1.5,-176.5"/>
<text text-anchor="middle" x="42" y="-230.3" font-family="Times,serif" font-size="14.00">a</text>
<polyline fill="none" stroke="black" points="1.5,-222.5 82.5,-222.5"/>
<text text-anchor="middle" x="42" y="-207.3" font-family="Times,serif" font-size="14.00">data: 2.0</text>
<polyline fill="none" stroke="black" points="1.5,-199.5 82.5,-199.5"/>
<text text-anchor="middle" x="42" y="-184.3" font-family="Times,serif" font-size="14.00">grad: 0.0</text>
</g>
<!-- 120&#45;&gt;240 -->
<g id="edge6" class="edge">
<title>120&#45;&gt;240</title>
<path fill="none" stroke="black" d="M82.23,-194.24C92.39,-189.9 103.23,-185.27 113.04,-181.08"/>
<polygon fill="black" stroke="black" points="114.36,-184.32 122.18,-177.17 111.61,-177.88 114.36,-184.32"/>
</g>
<!-- 140 -->
<g id="node8" class="node">
<title>140</title>
<polygon fill="none" stroke="black" points="0,-88.5 0,-157.5 84,-157.5 84,-88.5 0,-88.5"/>
<text text-anchor="middle" x="42" y="-142.3" font-family="Times,serif" font-size="14.00">b</text>
<polyline fill="none" stroke="black" points="0,-134.5 84,-134.5"/>
<text text-anchor="middle" x="42" y="-119.3" font-family="Times,serif" font-size="14.00">data: &#45;3.0</text>
<polyline fill="none" stroke="black" points="0,-111.5 84,-111.5"/>
<text text-anchor="middle" x="42" y="-96.3" font-family="Times,serif" font-size="14.00">grad: 0.0</text>
</g>
<!-- 140&#45;&gt;240 -->
<g id="edge7" class="edge">
<title>140&#45;&gt;240</title>
<path fill="none" stroke="black" d="M83.71,-140.39C93.49,-144.57 103.81,-148.98 113.18,-152.98"/>
<polygon fill="black" stroke="black" points="111.69,-156.15 122.26,-156.86 114.44,-149.71 111.69,-156.15"/>
</g>
<!-- 160 -->
<g id="node9" class="node">
<title>160</title>
<polygon fill="none" stroke="black" points="210,-44.5 210,-113.5 299,-113.5 299,-44.5 210,-44.5"/>
<text text-anchor="middle" x="254.5" y="-98.3" font-family="Times,serif" font-size="14.00">c</text>
<polyline fill="none" stroke="black" points="210,-90.5 299,-90.5"/>
<text text-anchor="middle" x="254.5" y="-75.3" font-family="Times,serif" font-size="14.00">data: 10.0</text>
<polyline fill="none" stroke="black" points="210,-67.5 299,-67.5"/>
<text text-anchor="middle" x="254.5" y="-52.3" font-family="Times,serif" font-size="14.00">grad: 0.0</text>
</g>
<!-- 160&#45;&gt;220 -->
<g id="edge8" class="edge">
<title>160&#45;&gt;220</title>
<path fill="none" stroke="black" d="M298.72,-97.02C308.53,-101.12 318.8,-105.4 328.11,-109.28"/>
<polygon fill="black" stroke="black" points="326.53,-112.42 337.11,-113.04 329.23,-105.96 326.53,-112.42"/>
</g>
<!-- 180 -->
<g id="node10" class="node">
<title>180</title>
<polygon fill="none" stroke="black" points="425,-0.5 425,-69.5 509,-69.5 509,-0.5 425,-0.5"/>
<text text-anchor="middle" x="467" y="-54.3" font-family="Times,serif" font-size="14.00">f</text>
<polyline fill="none" stroke="black" points="425,-46.5 509,-46.5"/>
<text text-anchor="middle" x="467" y="-31.3" font-family="Times,serif" font-size="14.00">data: &#45;2.0</text>
<polyline fill="none" stroke="black" points="425,-23.5 509,-23.5"/>
<text text-anchor="middle" x="467" y="-8.3" font-family="Times,serif" font-size="14.00">grad: 0.0</text>
</g>
<!-- 180&#45;&gt;200 -->
<g id="edge9" class="edge">
<title>180&#45;&gt;200</title>
<path fill="none" stroke="black" d="M508.71,-52.39C518.49,-56.57 528.81,-60.98 538.18,-64.98"/>
<polygon fill="black" stroke="black" points="536.69,-68.15 547.26,-68.86 539.44,-61.71 536.69,-68.15"/>
</g>
</g>
</svg>
