<?xml version="1.0" encoding="UTF-8" standalone="no"?>
<!DOCTYPE svg PUBLIC "-//W3C//DTD SVG 1.1//EN"
 "http://www.w3.org/Graphics/SVG/1.1/DTD/svg11.dtd">
<!-- Generated by graphviz version 7.1.0 (20230121.1956)
 -->
<!-- Title: G Pages: 1 -->
<svg width="1090pt" height="342pt"
 viewBox="0.00 0.00 1089.69 342.00" xmlns="http://www.w3.org/2000/svg" xmlns:xlink="http://www.w3.org/1999/xlink">
<g id="graph0" class="graph" transform="scale(1 1) rotate(0) translate(4 338)">
<title>G</title>
<polygon fill="white" stroke="none" points="-4,4 -4,-338 1085.69,-338 1085.69,4 -4,4"/>
<!-- 60 -->
<g id="node1" class="node">
<title>60</title>
<polygon fill="none" stroke="black" points="973.69,-88.5 973.69,-157.5 1081.69,-157.5 1081.69,-88.5 973.69,-88.5"/>
<text text-anchor="middle" x="1027.69" y="-142.3" font-family="Times,serif" font-size="14.00">o</text>
<polyline fill="none" stroke="black" points="973.69,-134.5 1081.69,-134.5"/>
<text text-anchor="middle" x="1027.69" y="-119.3" font-family="Times,serif" font-size="14.00">data: 0.7071</text>
<polyline fill="none" stroke="black" points="973.69,-111.5 1081.69,-111.5"/>
<text text-anchor="middle" x="1027.69" y="-96.3" font-family="Times,serif" font-size="14.00">grad: 1.0000</text>
</g>
<!-- 260 -->
<g id="node2" class="node">
<title>260</title>
<ellipse fill="none" stroke="black" cx="905.85" cy="-123" rx="31.7" ry="18"/>
<text text-anchor="middle" x="905.85" y="-119.3" font-family="Times,serif" font-size="14.00">tanh</text>
</g>
<!-- 260&#45;&gt;60 -->
<g id="edge1" class="edge">
<title>260&#45;&gt;60</title>
<path fill="none" stroke="black" d="M938.02,-123C945.64,-123 954.07,-123 962.62,-123"/>
<polygon fill="black" stroke="black" points="962.35,-126.5 972.35,-123 962.35,-119.5 962.35,-126.5"/>
</g>
<!-- 80 -->
<g id="node3" class="node">
<title>80</title>
<polygon fill="none" stroke="black" points="730,-88.5 730,-157.5 838,-157.5 838,-88.5 730,-88.5"/>
<text text-anchor="middle" x="784" y="-142.3" font-family="Times,serif" font-size="14.00">n</text>
<polyline fill="none" stroke="black" points="730,-134.5 838,-134.5"/>
<text text-anchor="middle" x="784" y="-119.3" font-family="Times,serif" font-size="14.00">data: 0.8814</text>
<polyline fill="none" stroke="black" points="730,-111.5 838,-111.5"/>
<text text-anchor="middle" x="784" y="-96.3" font-family="Times,serif" font-size="14.00">grad: 0.5000</text>
</g>
<!-- 80&#45;&gt;260 -->
<g id="edge6" class="edge">
<title>80&#45;&gt;260</title>
<path fill="none" stroke="black" d="M837.92,-123C846.17,-123 854.61,-123 862.59,-123"/>
<polygon fill="black" stroke="black" points="862.36,-126.5 872.36,-123 862.36,-119.5 862.36,-126.5"/>
</g>
<!-- 280 -->
<g id="node4" class="node">
<title>280</title>
<ellipse fill="none" stroke="black" cx="667" cy="-123" rx="27" ry="18"/>
<text text-anchor="middle" x="667" y="-119.3" font-family="Times,serif" font-size="14.00">+</text>
</g>
<!-- 280&#45;&gt;80 -->
<g id="edge2" class="edge">
<title>280&#45;&gt;80</title>
<path fill="none" stroke="black" d="M694.38,-123C701.85,-123 710.32,-123 719,-123"/>
<polygon fill="black" stroke="black" points="718.93,-126.5 728.93,-123 718.93,-119.5 718.93,-126.5"/>
</g>
<!-- 100 -->
<g id="node5" class="node">
<title>100</title>
<polygon fill="none" stroke="black" points="476,-132.5 476,-201.5 604,-201.5 604,-132.5 476,-132.5"/>
<text text-anchor="middle" x="540" y="-186.3" font-family="Times,serif" font-size="14.00">x1*w1 + x2*w2</text>
<polyline fill="none" stroke="black" points="476,-178.5 604,-178.5"/>
<text text-anchor="middle" x="540" y="-163.3" font-family="Times,serif" font-size="14.00">data: &#45;6.0000</text>
<polyline fill="none" stroke="black" points="476,-155.5 604,-155.5"/>
<text text-anchor="middle" x="540" y="-140.3" font-family="Times,serif" font-size="14.00">grad: 0.5000</text>
</g>
<!-- 100&#45;&gt;280 -->
<g id="edge7" class="edge">
<title>100&#45;&gt;280</title>
<path fill="none" stroke="black" d="M603.87,-144.87C613.5,-141.48 623.13,-138.09 631.83,-135.03"/>
<polygon fill="black" stroke="black" points="632.95,-138.34 641.22,-131.72 630.63,-131.74 632.95,-138.34"/>
</g>
<!-- 300 -->
<g id="node6" class="node">
<title>300</title>
<ellipse fill="none" stroke="black" cx="413" cy="-167" rx="27" ry="18"/>
<text text-anchor="middle" x="413" y="-163.3" font-family="Times,serif" font-size="14.00">+</text>
</g>
<!-- 300&#45;&gt;100 -->
<g id="edge3" class="edge">
<title>300&#45;&gt;100</title>
<path fill="none" stroke="black" d="M440.2,-167C447.52,-167 455.85,-167 464.51,-167"/>
<polygon fill="black" stroke="black" points="464.49,-170.5 474.49,-167 464.49,-163.5 464.49,-170.5"/>
</g>
<!-- 120 -->
<g id="node7" class="node">
<title>120</title>
<polygon fill="none" stroke="black" points="239,-176.5 239,-245.5 350,-245.5 350,-176.5 239,-176.5"/>
<text text-anchor="middle" x="294.5" y="-230.3" font-family="Times,serif" font-size="14.00">x1*w1</text>
<polyline fill="none" stroke="black" points="239,-222.5 350,-222.5"/>
<text text-anchor="middle" x="294.5" y="-207.3" font-family="Times,serif" font-size="14.00">data: &#45;6.0000</text>
<polyline fill="none" stroke="black" points="239,-199.5 350,-199.5"/>
<text text-anchor="middle" x="294.5" y="-184.3" font-family="Times,serif" font-size="14.00">grad: 0.5000</text>
</g>
<!-- 120&#45;&gt;300 -->
<g id="edge8" class="edge">
<title>120&#45;&gt;300</title>
<path fill="none" stroke="black" d="M350,-190.42C359.66,-186.77 369.46,-183.07 378.32,-179.72"/>
<polygon fill="black" stroke="black" points="379.44,-183.04 387.56,-176.23 376.97,-176.49 379.44,-183.04"/>
</g>
<!-- 320 -->
<g id="node8" class="node">
<title>320</title>
<ellipse fill="none" stroke="black" cx="176" cy="-211" rx="27" ry="18"/>
<text text-anchor="middle" x="176" y="-207.3" font-family="Times,serif" font-size="14.00">*</text>
</g>
<!-- 320&#45;&gt;120 -->
<g id="edge4" class="edge">
<title>320&#45;&gt;120</title>
<path fill="none" stroke="black" d="M203.44,-211C210.81,-211 219.17,-211 227.75,-211"/>
<polygon fill="black" stroke="black" points="227.57,-214.5 237.57,-211 227.57,-207.5 227.57,-214.5"/>
</g>
<!-- 140 -->
<g id="node9" class="node">
<title>140</title>
<polygon fill="none" stroke="black" points="0,-264.5 0,-333.5 113,-333.5 113,-264.5 0,-264.5"/>
<text text-anchor="middle" x="56.5" y="-318.3" font-family="Times,serif" font-size="14.00">x1</text>
<polyline fill="none" stroke="black" points="0,-310.5 113,-310.5"/>
<text text-anchor="middle" x="56.5" y="-295.3" font-family="Times,serif" font-size="14.00">data: 2.0000</text>
<polyline fill="none" stroke="black" points="0,-287.5 113,-287.5"/>
<text text-anchor="middle" x="56.5" y="-272.3" font-family="Times,serif" font-size="14.00">grad: &#45;1.5000</text>
</g>
<!-- 140&#45;&gt;320 -->
<g id="edge9" class="edge">
<title>140&#45;&gt;320</title>
<path fill="none" stroke="black" d="M103.27,-264.72C118.51,-253.31 134.98,-240.97 148.29,-231"/>
<polygon fill="black" stroke="black" points="150.25,-233.91 156.15,-225.12 146.05,-228.31 150.25,-233.91"/>
</g>
<!-- 160 -->
<g id="node10" class="node">
<title>160</title>
<polygon fill="none" stroke="black" points="1,-176.5 1,-245.5 112,-245.5 112,-176.5 1,-176.5"/>
<text text-anchor="middle" x="56.5" y="-230.3" font-family="Times,serif" font-size="14.00">w1</text>
<polyline fill="none" stroke="black" points="1,-222.5 112,-222.5"/>
<text text-anchor="middle" x="56.5" y="-207.3" font-family="Times,serif" font-size="14.00">data: &#45;3.0000</text>
<polyline fill="none" stroke="black" points="1,-199.5 112,-199.5"/>
<text text-anchor="middle" x="56.5" y="-184.3" font-family="Times,serif" font-size="14.00">grad: 1.0000</text>
</g>
<!-- 160&#45;&gt;320 -->
<g id="edge10" class="edge">
<title>160&#45;&gt;320</title>
<path fill="none" stroke="black" d="M111.78,-211C120.42,-211 129.2,-211 137.35,-211"/>
<polygon fill="black" stroke="black" points="137.24,-214.5 147.24,-211 137.24,-207.5 137.24,-214.5"/>
</g>
<!-- 180 -->
<g id="node11" class="node">
<title>180</title>
<polygon fill="none" stroke="black" points="240.5,-88.5 240.5,-157.5 348.5,-157.5 348.5,-88.5 240.5,-88.5"/>
<text text-anchor="middle" x="294.5" y="-142.3" font-family="Times,serif" font-size="14.00">x2*w2</text>
<polyline fill="none" stroke="black" points="240.5,-134.5 348.5,-134.5"/>
<text text-anchor="middle" x="294.5" y="-119.3" font-family="Times,serif" font-size="14.00">data: 0.0000</text>
<polyline fill="none" stroke="black" points="240.5,-111.5 348.5,-111.5"/>
<text text-anchor="middle" x="294.5" y="-96.3" font-family="Times,serif" font-size="14.00">grad: 0.5000</text>
</g>
<!-- 180&#45;&gt;300 -->
<g id="edge11" class="edge">
<title>180&#45;&gt;300</title>
<path fill="none" stroke="black" d="M348.3,-142.94C358.51,-146.8 368.95,-150.74 378.34,-154.29"/>
<polygon fill="black" stroke="black" points="376.8,-157.45 387.39,-157.71 379.27,-150.9 376.8,-157.45"/>
</g>
<!-- 340 -->
<g id="node12" class="node">
<title>340</title>
<ellipse fill="none" stroke="black" cx="176" cy="-123" rx="27" ry="18"/>
<text text-anchor="middle" x="176" y="-119.3" font-family="Times,serif" font-size="14.00">*</text>
</g>
<!-- 340&#45;&gt;180 -->
<g id="edge5" class="edge">
<title>340&#45;&gt;180</title>
<path fill="none" stroke="black" d="M203.44,-123C211.36,-123 220.41,-123 229.66,-123"/>
<polygon fill="black" stroke="black" points="229.45,-126.5 239.45,-123 229.45,-119.5 229.45,-126.5"/>
</g>
<!-- 200 -->
<g id="node13" class="node">
<title>200</title>
<polygon fill="none" stroke="black" points="2.5,-88.5 2.5,-157.5 110.5,-157.5 110.5,-88.5 2.5,-88.5"/>
<text text-anchor="middle" x="56.5" y="-142.3" font-family="Times,serif" font-size="14.00">x2</text>
<polyline fill="none" stroke="black" points="2.5,-134.5 110.5,-134.5"/>
<text text-anchor="middle" x="56.5" y="-119.3" font-family="Times,serif" font-size="14.00">data: 0.0000</text>
<polyline fill="none" stroke="black" points="2.5,-111.5 110.5,-111.5"/>
<text text-anchor="middle" x="56.5" y="-96.3" font-family="Times,serif" font-size="14.00">grad: 0.5000</text>
</g>
<!-- 200&#45;&gt;340 -->
<g id="edge12" class="edge">
<title>200&#45;&gt;340</title>
<path fill="none" stroke="black" d="M110.41,-123C119.54,-123 128.86,-123 137.47,-123"/>
<polygon fill="black" stroke="black" points="137.19,-126.5 147.19,-123 137.19,-119.5 137.19,-126.5"/>
</g>
<!-- 220 -->
<g id="node14" class="node">
<title>220</title>
<polygon fill="none" stroke="black" points="2.5,-0.5 2.5,-69.5 110.5,-69.5 110.5,-0.5 2.5,-0.5"/>
<text text-anchor="middle" x="56.5" y="-54.3" font-family="Times,serif" font-size="14.00">w2</text>
<polyline fill="none" stroke="black" points="2.5,-46.5 110.5,-46.5"/>
<text text-anchor="middle" x="56.5" y="-31.3" font-family="Times,serif" font-size="14.00">data: 1.0000</text>
<polyline fill="none" stroke="black" points="2.5,-23.5 110.5,-23.5"/>
<text text-anchor="middle" x="56.5" y="-8.3" font-family="Times,serif" font-size="14.00">grad: 0.0000</text>
</g>
<!-- 220&#45;&gt;340 -->
<g id="edge13" class="edge">
<title>220&#45;&gt;340</title>
<path fill="none" stroke="black" d="M103.27,-69.28C118.51,-80.69 134.98,-93.03 148.29,-103"/>
<polygon fill="black" stroke="black" points="146.05,-105.69 156.15,-108.88 150.25,-100.09 146.05,-105.69"/>
</g>
<!-- 240 -->
<g id="node15" class="node">
<title>240</title>
<polygon fill="none" stroke="black" points="486,-44.5 486,-113.5 594,-113.5 594,-44.5 486,-44.5"/>
<text text-anchor="middle" x="540" y="-98.3" font-family="Times,serif" font-size="14.00">b</text>
<polyline fill="none" stroke="black" points="486,-90.5 594,-90.5"/>
<text text-anchor="middle" x="540" y="-75.3" font-family="Times,serif" font-size="14.00">data: 6.8814</text>
<polyline fill="none" stroke="black" points="486,-67.5 594,-67.5"/>
<text text-anchor="middle" x="540" y="-52.3" font-family="Times,serif" font-size="14.00">grad: 0.5000</text>
</g>
<!-- 240&#45;&gt;280 -->
<g id="edge14" class="edge">
<title>240&#45;&gt;280</title>
<path fill="none" stroke="black" d="M593.65,-97.53C606.59,-102.09 620.12,-106.85 631.92,-111"/>
<polygon fill="black" stroke="black" points="630.61,-114.25 641.21,-114.27 632.94,-107.65 630.61,-114.25"/>
</g>
</g>
</svg>
