<?xml version="1.0" encoding="UTF-8" standalone="no"?>
<!DOCTYPE svg PUBLIC "-//W3C//DTD SVG 1.1//EN"
 "http://www.w3.org/Graphics/SVG/1.1/DTD/svg11.dtd">
<!-- Generated by graphviz version 7.1.0 (20230121.1956)
 -->
<!-- Title: G Pages: 1 -->
<svg width="835pt" height="254pt"
 viewBox="0.00 0.00 835.00 254.00" xmlns="http://www.w3.org/2000/svg" xmlns:xlink="http://www.w3.org/1999/xlink">
<g id="graph0" class="graph" transform="scale(1 1) rotate(0) translate(4 250)">
<title>G</title>
<polygon fill="white" stroke="none" points="-4,4 -4,-250 831,-250 831,4 -4,4"/>
<!-- 60 -->
<g id="node1" class="node">
<title>60</title>
<polygon fill="none" stroke="black" points="716,-44.5 716,-113.5 827,-113.5 827,-44.5 716,-44.5"/>
<text text-anchor="middle" x="771.5" y="-98.3" font-family="Times,serif" font-size="14.00">L</text>
<polyline fill="none" stroke="black" points="716,-90.5 827,-90.5"/>
<text text-anchor="middle" x="771.5" y="-75.3" font-family="Times,serif" font-size="14.00">data: &#45;8.0000</text>
<polyline fill="none" stroke="black" points="716,-67.5 827,-67.5"/>
<text text-anchor="middle" x="771.5" y="-52.3" font-family="Times,serif" font-size="14.00">grad: 0.0000</text>
</g>
<!-- 200 -->
<g id="node2" class="node">
<title>200</title>
<ellipse fill="none" stroke="black" cx="653" cy="-79" rx="27" ry="18"/>
<text text-anchor="middle" x="653" y="-75.3" font-family="Times,serif" font-size="14.00">*</text>
</g>
<!-- 200&#45;&gt;60 -->
<g id="edge1" class="edge">
<title>200&#45;&gt;60</title>
<path fill="none" stroke="black" d="M680.44,-79C687.81,-79 696.17,-79 704.75,-79"/>
<polygon fill="black" stroke="black" points="704.57,-82.5 714.57,-79 704.57,-75.5 704.57,-82.5"/>
</g>
<!-- 80 -->
<g id="node3" class="node">
<title>80</title>
<polygon fill="none" stroke="black" points="480.5,-88.5 480.5,-157.5 588.5,-157.5 588.5,-88.5 480.5,-88.5"/>
<text text-anchor="middle" x="534.5" y="-142.3" font-family="Times,serif" font-size="14.00">d</text>
<polyline fill="none" stroke="black" points="480.5,-134.5 588.5,-134.5"/>
<text text-anchor="middle" x="534.5" y="-119.3" font-family="Times,serif" font-size="14.00">data: 4.0000</text>
<polyline fill="none" stroke="black" points="480.5,-111.5 588.5,-111.5"/>
<text text-anchor="middle" x="534.5" y="-96.3" font-family="Times,serif" font-size="14.00">grad: 0.0000</text>
</g>
<!-- 80&#45;&gt;200 -->
<g id="edge4" class="edge">
<title>80&#45;&gt;200</title>
<path fill="none" stroke="black" d="M588.3,-103.06C598.51,-99.2 608.95,-95.26 618.34,-91.71"/>
<polygon fill="black" stroke="black" points="619.27,-95.1 627.39,-88.29 616.8,-88.55 619.27,-95.1"/>
</g>
<!-- 220 -->
<g id="node4" class="node">
<title>220</title>
<ellipse fill="none" stroke="black" cx="416" cy="-123" rx="27" ry="18"/>
<text text-anchor="middle" x="416" y="-119.3" font-family="Times,serif" font-size="14.00">+</text>
</g>
<!-- 220&#45;&gt;80 -->
<g id="edge2" class="edge">
<title>220&#45;&gt;80</title>
<path fill="none" stroke="black" d="M443.44,-123C451.36,-123 460.41,-123 469.66,-123"/>
<polygon fill="black" stroke="black" points="469.45,-126.5 479.45,-123 469.45,-119.5 469.45,-126.5"/>
</g>
<!-- 100 -->
<g id="node5" class="node">
<title>100</title>
<polygon fill="none" stroke="black" points="239.5,-132.5 239.5,-201.5 350.5,-201.5 350.5,-132.5 239.5,-132.5"/>
<text text-anchor="middle" x="295" y="-186.3" font-family="Times,serif" font-size="14.00">e</text>
<polyline fill="none" stroke="black" points="239.5,-178.5 350.5,-178.5"/>
<text text-anchor="middle" x="295" y="-163.3" font-family="Times,serif" font-size="14.00">data: &#45;6.0000</text>
<polyline fill="none" stroke="black" points="239.5,-155.5 350.5,-155.5"/>
<text text-anchor="middle" x="295" y="-140.3" font-family="Times,serif" font-size="14.00">grad: 0.0000</text>
</g>
<!-- 100&#45;&gt;220 -->
<g id="edge5" class="edge">
<title>100&#45;&gt;220</title>
<path fill="none" stroke="black" d="M350.28,-146.93C360.76,-143.05 371.47,-139.1 381.07,-135.54"/>
<polygon fill="black" stroke="black" points="382.18,-138.87 390.35,-132.12 379.75,-132.3 382.18,-138.87"/>
</g>
<!-- 240 -->
<g id="node6" class="node">
<title>240</title>
<ellipse fill="none" stroke="black" cx="174" cy="-167" rx="27" ry="18"/>
<text text-anchor="middle" x="174" y="-163.3" font-family="Times,serif" font-size="14.00">*</text>
</g>
<!-- 240&#45;&gt;100 -->
<g id="edge3" class="edge">
<title>240&#45;&gt;100</title>
<path fill="none" stroke="black" d="M201.41,-167C209.58,-167 218.97,-167 228.57,-167"/>
<polygon fill="black" stroke="black" points="228.36,-170.5 238.36,-167 228.36,-163.5 228.36,-170.5"/>
</g>
<!-- 120 -->
<g id="node7" class="node">
<title>120</title>
<polygon fill="none" stroke="black" points="1.5,-176.5 1.5,-245.5 109.5,-245.5 109.5,-176.5 1.5,-176.5"/>
<text text-anchor="middle" x="55.5" y="-230.3" font-family="Times,serif" font-size="14.00">a</text>
<polyline fill="none" stroke="black" points="1.5,-222.5 109.5,-222.5"/>
<text text-anchor="middle" x="55.5" y="-207.3" font-family="Times,serif" font-size="14.00">data: 2.0000</text>
<polyline fill="none" stroke="black" points="1.5,-199.5 109.5,-199.5"/>
<text text-anchor="middle" x="55.5" y="-184.3" font-family="Times,serif" font-size="14.00">grad: 0.0000</text>
</g>
<!-- 120&#45;&gt;240 -->
<g id="edge6" class="edge">
<title>120&#45;&gt;240</title>
<path fill="none" stroke="black" d="M109.3,-191.06C119.51,-187.2 129.95,-183.26 139.34,-179.71"/>
<polygon fill="black" stroke="black" points="140.27,-183.1 148.39,-176.29 137.8,-176.55 140.27,-183.1"/>
</g>
<!-- 140 -->
<g id="node8" class="node">
<title>140</title>
<polygon fill="none" stroke="black" points="0,-88.5 0,-157.5 111,-157.5 111,-88.5 0,-88.5"/>
<text text-anchor="middle" x="55.5" y="-142.3" font-family="Times,serif" font-size="14.00">b</text>
<polyline fill="none" stroke="black" points="0,-134.5 111,-134.5"/>
<text text-anchor="middle" x="55.5" y="-119.3" font-family="Times,serif" font-size="14.00">data: &#45;3.0000</text>
<polyline fill="none" stroke="black" points="0,-111.5 111,-111.5"/>
<text text-anchor="middle" x="55.5" y="-96.3" font-family="Times,serif" font-size="14.00">grad: 0.0000</text>
</g>
<!-- 140&#45;&gt;240 -->
<g id="edge7" class="edge">
<title>140&#45;&gt;240</title>
<path fill="none" stroke="black" d="M111,-143.58C120.66,-147.23 130.46,-150.93 139.32,-154.28"/>
<polygon fill="black" stroke="black" points="137.97,-157.51 148.56,-157.77 140.44,-150.96 137.97,-157.51"/>
</g>
<!-- 160 -->
<g id="node9" class="node">
<title>160</title>
<polygon fill="none" stroke="black" points="237,-44.5 237,-113.5 353,-113.5 353,-44.5 237,-44.5"/>
<text text-anchor="middle" x="295" y="-98.3" font-family="Times,serif" font-size="14.00">c</text>
<polyline fill="none" stroke="black" points="237,-90.5 353,-90.5"/>
<text text-anchor="middle" x="295" y="-75.3" font-family="Times,serif" font-size="14.00">data: 10.0000</text>
<polyline fill="none" stroke="black" points="237,-67.5 353,-67.5"/>
<text text-anchor="middle" x="295" y="-52.3" font-family="Times,serif" font-size="14.00">grad: 0.0000</text>
</g>
<!-- 160&#45;&gt;220 -->
<g id="edge8" class="edge">
<title>160&#45;&gt;220</title>
<path fill="none" stroke="black" d="M352.71,-99.97C362.48,-103.58 372.34,-107.23 381.25,-110.52"/>
<polygon fill="black" stroke="black" points="379.94,-113.77 390.53,-113.95 382.36,-107.2 379.94,-113.77"/>
</g>
<!-- 180 -->
<g id="node10" class="node">
<title>180</title>
<polygon fill="none" stroke="black" points="479,-0.5 479,-69.5 590,-69.5 590,-0.5 479,-0.5"/>
<text text-anchor="middle" x="534.5" y="-54.3" font-family="Times,serif" font-size="14.00">f</text>
<polyline fill="none" stroke="black" points="479,-46.5 590,-46.5"/>
<text text-anchor="middle" x="534.5" y="-31.3" font-family="Times,serif" font-size="14.00">data: &#45;2.0000</text>
<polyline fill="none" stroke="black" points="479,-23.5 590,-23.5"/>
<text text-anchor="middle" x="534.5" y="-8.3" font-family="Times,serif" font-size="14.00">grad: 0.0000</text>
</g>
<!-- 180&#45;&gt;200 -->
<g id="edge9" class="edge">
<title>180&#45;&gt;200</title>
<path fill="none" stroke="black" d="M590,-55.58C599.66,-59.23 609.46,-62.93 618.32,-66.28"/>
<polygon fill="black" stroke="black" points="616.97,-69.51 627.56,-69.77 619.44,-62.96 616.97,-69.51"/>
</g>
</g>
</svg>
