<?xml version="1.0" encoding="UTF-8" standalone="no"?>
<!DOCTYPE svg PUBLIC "-//W3C//DTD SVG 1.1//EN"
 "http://www.w3.org/Graphics/SVG/1.1/DTD/svg11.dtd">
<!-- Generated by graphviz version 7.1.0 (20230121.1956)
 -->
<!-- Title: G Pages: 1 -->
<svg width="727pt" height="186pt"
 viewBox="0.00 0.00 727.00 186.00" xmlns="http://www.w3.org/2000/svg" xmlns:xlink="http://www.w3.org/1999/xlink">
<g id="graph0" class="graph" transform="scale(1 1) rotate(0) translate(4 182)">
<title>G</title>
<polygon fill="white" stroke="none" points="-4,4 -4,-182 723,-182 723,4 -4,4"/>
<!-- 60 -->
<g id="node1" class="node">
<title>60</title>
<polygon fill="none" stroke="black" points="635,-32.5 635,-78.5 719,-78.5 719,-32.5 635,-32.5"/>
<text text-anchor="middle" x="677" y="-63.3" font-family="Times,serif" font-size="14.00">L</text>
<polyline fill="none" stroke="black" points="635,-55.5 719,-55.5"/>
<text text-anchor="middle" x="677" y="-40.3" font-family="Times,serif" font-size="14.00">data: &#45;8.0</text>
</g>
<!-- 200 -->
<g id="node2" class="node">
<title>200</title>
<ellipse fill="none" stroke="black" cx="572" cy="-55.5" rx="27" ry="18"/>
<text text-anchor="middle" x="572" y="-51.8" font-family="Times,serif" font-size="14.00">*</text>
</g>
<!-- 200&#45;&gt;60 -->
<g id="edge1" class="edge">
<title>200&#45;&gt;60</title>
<path fill="none" stroke="black" d="M599.26,-55.5C606.88,-55.5 615.49,-55.5 624.11,-55.5"/>
<polygon fill="black" stroke="black" points="623.86,-59 633.86,-55.5 623.86,-52 623.86,-59"/>
</g>
<!-- 80 -->
<g id="node3" class="node">
<title>80</title>
<polygon fill="none" stroke="black" points="427,-65.5 427,-111.5 507,-111.5 507,-65.5 427,-65.5"/>
<text text-anchor="middle" x="467" y="-96.3" font-family="Times,serif" font-size="14.00">d</text>
<polyline fill="none" stroke="black" points="427,-88.5 507,-88.5"/>
<text text-anchor="middle" x="467" y="-73.3" font-family="Times,serif" font-size="14.00">data: 4.0</text>
</g>
<!-- 80&#45;&gt;200 -->
<g id="edge4" class="edge">
<title>80&#45;&gt;200</title>
<path fill="none" stroke="black" d="M506.94,-76.02C516.69,-72.9 527.07,-69.57 536.58,-66.53"/>
<polygon fill="black" stroke="black" points="537.35,-69.96 545.81,-63.57 535.21,-63.29 537.35,-69.96"/>
</g>
<!-- 220 -->
<g id="node4" class="node">
<title>220</title>
<ellipse fill="none" stroke="black" cx="362" cy="-88.5" rx="27" ry="18"/>
<text text-anchor="middle" x="362" y="-84.8" font-family="Times,serif" font-size="14.00">+</text>
</g>
<!-- 220&#45;&gt;80 -->
<g id="edge2" class="edge">
<title>220&#45;&gt;80</title>
<path fill="none" stroke="black" d="M389.26,-88.5C397.48,-88.5 406.84,-88.5 416.13,-88.5"/>
<polygon fill="black" stroke="black" points="415.83,-92 425.83,-88.5 415.83,-85 415.83,-92"/>
</g>
<!-- 100 -->
<g id="node5" class="node">
<title>100</title>
<polygon fill="none" stroke="black" points="212.5,-98.5 212.5,-144.5 296.5,-144.5 296.5,-98.5 212.5,-98.5"/>
<text text-anchor="middle" x="254.5" y="-129.3" font-family="Times,serif" font-size="14.00">e</text>
<polyline fill="none" stroke="black" points="212.5,-121.5 296.5,-121.5"/>
<text text-anchor="middle" x="254.5" y="-106.3" font-family="Times,serif" font-size="14.00">data: &#45;6.0</text>
</g>
<!-- 100&#45;&gt;220 -->
<g id="edge5" class="edge">
<title>100&#45;&gt;220</title>
<path fill="none" stroke="black" d="M296.29,-108.74C306.21,-105.64 316.72,-102.35 326.33,-99.35"/>
<polygon fill="black" stroke="black" points="327.15,-102.76 335.65,-96.43 325.06,-96.07 327.15,-102.76"/>
</g>
<!-- 240 -->
<g id="node6" class="node">
<title>240</title>
<ellipse fill="none" stroke="black" cx="147" cy="-121.5" rx="27" ry="18"/>
<text text-anchor="middle" x="147" y="-117.8" font-family="Times,serif" font-size="14.00">*</text>
</g>
<!-- 240&#45;&gt;100 -->
<g id="edge3" class="edge">
<title>240&#45;&gt;100</title>
<path fill="none" stroke="black" d="M174.35,-121.5C182.59,-121.5 192,-121.5 201.37,-121.5"/>
<polygon fill="black" stroke="black" points="201.21,-125 211.21,-121.5 201.21,-118 201.21,-125"/>
</g>
<!-- 120 -->
<g id="node7" class="node">
<title>120</title>
<polygon fill="none" stroke="black" points="2,-131.5 2,-177.5 82,-177.5 82,-131.5 2,-131.5"/>
<text text-anchor="middle" x="42" y="-162.3" font-family="Times,serif" font-size="14.00">a</text>
<polyline fill="none" stroke="black" points="2,-154.5 82,-154.5"/>
<text text-anchor="middle" x="42" y="-139.3" font-family="Times,serif" font-size="14.00">data: 2.0</text>
</g>
<!-- 120&#45;&gt;240 -->
<g id="edge6" class="edge">
<title>120&#45;&gt;240</title>
<path fill="none" stroke="black" d="M81.94,-142.02C91.69,-138.9 102.07,-135.57 111.58,-132.53"/>
<polygon fill="black" stroke="black" points="112.35,-135.96 120.81,-129.57 110.21,-129.29 112.35,-135.96"/>
</g>
<!-- 140 -->
<g id="node8" class="node">
<title>140</title>
<polygon fill="none" stroke="black" points="0,-66.5 0,-112.5 84,-112.5 84,-66.5 0,-66.5"/>
<text text-anchor="middle" x="42" y="-97.3" font-family="Times,serif" font-size="14.00">b</text>
<polyline fill="none" stroke="black" points="0,-89.5 84,-89.5"/>
<text text-anchor="middle" x="42" y="-74.3" font-family="Times,serif" font-size="14.00">data: &#45;3.0</text>
</g>
<!-- 140&#45;&gt;240 -->
<g id="edge7" class="edge">
<title>140&#45;&gt;240</title>
<path fill="none" stroke="black" d="M83.71,-102.15C92.8,-104.97 102.37,-107.94 111.2,-110.69"/>
<polygon fill="black" stroke="black" points="109.86,-113.94 120.45,-113.56 111.94,-107.25 109.86,-113.94"/>
</g>
<!-- 160 -->
<g id="node9" class="node">
<title>160</title>
<polygon fill="none" stroke="black" points="210,-33.5 210,-79.5 299,-79.5 299,-33.5 210,-33.5"/>
<text text-anchor="middle" x="254.5" y="-64.3" font-family="Times,serif" font-size="14.00">c</text>
<polyline fill="none" stroke="black" points="210,-56.5 299,-56.5"/>
<text text-anchor="middle" x="254.5" y="-41.3" font-family="Times,serif" font-size="14.00">data: 10.0</text>
</g>
<!-- 160&#45;&gt;220 -->
<g id="edge8" class="edge">
<title>160&#45;&gt;220</title>
<path fill="none" stroke="black" d="M298.72,-69.61C307.82,-72.37 317.31,-75.25 326.06,-77.9"/>
<polygon fill="black" stroke="black" points="325.01,-81.24 335.59,-80.79 327.04,-74.54 325.01,-81.24"/>
</g>
<!-- 180 -->
<g id="node10" class="node">
<title>180</title>
<polygon fill="none" stroke="black" points="425,-0.5 425,-46.5 509,-46.5 509,-0.5 425,-0.5"/>
<text text-anchor="middle" x="467" y="-31.3" font-family="Times,serif" font-size="14.00">f</text>
<polyline fill="none" stroke="black" points="425,-23.5 509,-23.5"/>
<text text-anchor="middle" x="467" y="-8.3" font-family="Times,serif" font-size="14.00">data: &#45;2.0</text>
</g>
<!-- 180&#45;&gt;200 -->
<g id="edge9" class="edge">
<title>180&#45;&gt;200</title>
<path fill="none" stroke="black" d="M508.71,-36.15C517.8,-38.97 527.37,-41.94 536.2,-44.69"/>
<polygon fill="black" stroke="black" points="534.86,-47.94 545.45,-47.56 536.94,-41.25 534.86,-47.94"/>
</g>
</g>
</svg>
